<svg enable-background="new 44.2 -25 128 128" viewBox="44.2 -25 128 128" xmlns="http://www.w3.org/2000/svg"><path d="m168.2 59h-120c-2.2 0-4-1.8-4-4v-32c0-2.2 1.8-4 4-4h120c2.2 0 4 1.8 4 4v32c0 2.2-1.8 4-4 4z"/><g fill="#fff"><path d="m71.2 38.8c0-3.1 2.6-4.6 2.7-4.7-1.5-2.1-3.7-2.4-4.5-2.5-1.9-.2-3.8 1.1-4.7 1.1-1 0-2.5-1.1-4.1-1.1-2.1 0-4 1.2-5.1 3.1-2.2 3.8-.6 9.4 1.5 12.5 1.1 1.5 2.3 3.2 3.9 3.1s2.2-1 4.1-1 2.4 1 4.1 1 2.8-1.5 3.8-3c1.2-1.7 1.7-3.4 1.7-3.5-.1-.1-3.4-1.3-3.4-5z"/><path d="m68.1 29.6c.8-1.1 1.4-2.5 1.3-4-1.2.1-2.8.8-3.6 1.9-.8.9-1.5 2.4-1.3 3.8 1.3.1 2.7-.7 3.6-1.7z"/><path d="m94 50.1h-2.2l-1.2-3.8h-4.2l-1.1 3.8h-2.1l4.2-12.9h2.6zm-3.8-5.4-1.1-3.4c-.1-.3-.3-1.2-.7-2.4-.1.5-.3 1.4-.6 2.4l-1.1 3.4z"/><path d="m104.7 45.4c0 1.6-.4 2.8-1.3 3.8-.8.8-1.7 1.2-2.9 1.2s-2.1-.4-2.6-1.3v4.9h-2.1v-10c0-1 0-2-.1-3.1h1.8l.1 1.5c.7-1.1 1.7-1.7 3.1-1.7 1.1 0 2 .4 2.7 1.3.9.8 1.3 1.9 1.3 3.4zm-2.1 0c0-.9-.2-1.7-.6-2.2-.4-.6-1-.9-1.8-.9-.5 0-1 .2-1.4.5s-.7.8-.8 1.3c-.1.3-.1.5-.1.6v1.6c0 .7.2 1.2.6 1.7s1 .7 1.6.7c.8 0 1.4-.3 1.8-.9.5-.6.7-1.4.7-2.4z"/><path d="m115.4 45.4c0 1.6-.4 2.8-1.3 3.8-.8.8-1.7 1.2-2.9 1.2s-2.1-.4-2.6-1.3v4.9h-2.1v-10c0-1 0-2-.1-3.1h1.8l.1 1.5c.7-1.1 1.7-1.7 3.1-1.7 1.1 0 2 .4 2.7 1.3.9.8 1.3 1.9 1.3 3.4zm-2.1 0c0-.9-.2-1.7-.6-2.2-.4-.6-1-.9-1.8-.9-.5 0-1 .2-1.4.5s-.7.8-.8 1.3c-.1.3-.1.5-.1.6v1.6c0 .7.2 1.2.6 1.7s1 .7 1.6.7c.8 0 1.4-.3 1.8-.9.5-.6.7-1.4.7-2.4z"/><path d="m127.4 46.5c0 1.1-.4 2-1.1 2.7-.8.8-2 1.1-3.5 1.1-1.4 0-2.5-.3-3.3-.8l.5-1.7c.9.5 1.9.8 3 .8.8 0 1.4-.2 1.8-.5.4-.4.6-.8.6-1.4 0-.5-.2-1-.5-1.3-.4-.4-1-.7-1.8-1-2.3-.8-3.4-2.1-3.4-3.7 0-1.1.4-1.9 1.2-2.6s1.8-1 3.2-1c1.2 0 2.1.2 2.9.6l-.5 1.7c-.7-.4-1.5-.6-2.5-.6-.7 0-1.3.2-1.7.5-.3.3-.5.7-.5 1.2s.2.9.6 1.3c.3.3 1 .6 1.9 1 1.1.4 1.9 1 2.5 1.6.3.5.6 1.2.6 2.1z"/><path d="m134.2 42.4h-2.3v4.5c0 1.1.4 1.7 1.2 1.7.4 0 .7 0 .9-.1l.1 1.6c-.4.2-.9.2-1.6.2-.8 0-1.5-.2-1.9-.7-.5-.5-.7-1.3-.7-2.5v-4.7h-1.4v-1.6h1.4v-1.7l2-.6v2.3h2.3z"/><path d="m144.5 45.4c0 1.4-.4 2.6-1.2 3.5-.9.9-2 1.4-3.4 1.4s-2.5-.5-3.3-1.4-1.2-2-1.2-3.4.4-2.6 1.3-3.5c.8-.9 2-1.4 3.4-1.4s2.5.5 3.3 1.4c.7.9 1.1 2 1.1 3.4zm-2.2.1c0-.9-.2-1.6-.6-2.2-.4-.7-1.1-1.1-1.9-1.1s-1.5.4-1.9 1.1c-.4.6-.6 1.4-.6 2.2 0 .9.2 1.6.6 2.2.4.7 1.1 1.1 1.9 1.1s1.4-.4 1.9-1.1c.4-.6.6-1.4.6-2.2z"/><path d="m151.2 42.6c-.2 0-.4-.1-.7-.1-.7 0-1.3.3-1.7.8-.3.5-.5 1.1-.5 1.8v4.9h-2.1v-6.4c0-1.1 0-2-.1-2.9h1.8l.1 1.8h.1c.2-.6.6-1.1 1-1.5.5-.3 1-.5 1.5-.5h.5v2.1z"/><path d="m160.4 45c0 .4 0 .7-.1.9h-6.2c0 .9.3 1.6.9 2.1.5.4 1.2.7 2 .7.9 0 1.8-.1 2.5-.4l.3 1.4c-.9.4-1.9.6-3.1.6-1.4 0-2.6-.4-3.4-1.3-.8-.8-1.2-2-1.2-3.4s.4-2.6 1.1-3.5c.8-1 1.9-1.5 3.3-1.5 1.3 0 2.4.5 3 1.5.7.8.9 1.8.9 2.9zm-1.9-.5c0-.6-.1-1.1-.4-1.6-.4-.6-.9-.9-1.6-.9s-1.2.3-1.6.8c-.3.4-.5 1-.6 1.6h4.2z"/><path d="m89.6 29.3c0 1.1-.3 2-1 2.6-.6.5-1.5.8-2.7.8-.6 0-1.1 0-1.5-.1v-6.2c.5-.1 1.1-.1 1.8-.1 1.1 0 1.9.2 2.5.7.5.5.9 1.3.9 2.3zm-1.1 0c0-.7-.2-1.3-.6-1.7s-1-.6-1.7-.6c-.3 0-.6 0-.8.1v4.7h.7c.8 0 1.4-.2 1.8-.6s.6-1.1.6-1.9z"/><path d="m95.2 30.3c0 .7-.2 1.3-.6 1.7-.4.5-1 .7-1.7.7s-1.2-.2-1.6-.7c-.4-.4-.6-1-.6-1.7s.2-1.3.6-1.7c.4-.5 1-.7 1.7-.7s1.2.2 1.6.7c.4.4.6 1 .6 1.7zm-1 0c0-.4-.1-.8-.3-1.1-.2-.4-.5-.5-.9-.5s-.7.2-.9.5-.3.7-.3 1.1.1.8.3 1.1c.2.4.5.5.9.5s.7-.2.9-.6c.2-.2.3-.6.3-1z"/><path d="m102.9 28-1.4 4.6h-.9l-.6-2c-.2-.5-.3-1-.4-1.5-.1.5-.2 1-.4 1.5l-.6 2h-.9l-1.5-4.6h1l.5 2.2c.1.5.2 1 .3 1.5.1-.4.2-.9.4-1.5l.6-2.2h.8l.6 2.1c.2.5.3 1 .4 1.5.1-.5.2-1 .3-1.5l.6-2.1z"/><path d="m108.1 32.6h-1v-2.6c0-.8-.3-1.2-.9-1.2-.3 0-.5.1-.7.3s-.3.5-.3.8v2.7h-1v-3.3c0-.4 0-.8 0-1.3h.9v.7c.1-.2.3-.4.5-.6.3-.2.6-.3.9-.3.4 0 .8.1 1.1.4.4.3.5.8.5 1.5z"/><path d="m110.9 32.6h-1v-6.7h1z"/><path d="m116.9 30.3c0 .7-.2 1.3-.6 1.7-.4.5-1 .7-1.7.7s-1.2-.2-1.6-.7c-.4-.4-.6-1-.6-1.7s.2-1.3.6-1.7 1-.7 1.7-.7 1.2.2 1.6.7c.4.4.6 1 .6 1.7zm-1 0c0-.4-.1-.8-.3-1.1-.2-.4-.5-.5-.9-.5s-.7.2-.9.5-.3.7-.3 1.1.1.8.3 1.1c.2.4.5.5.9.5s.7-.2.9-.6c.2-.2.3-.6.3-1z"/><path d="m121.8 32.6h-.9l-.1-.5c-.3.4-.8.6-1.3.6-.4 0-.8-.1-1-.4s-.4-.6-.4-.9c0-.6.2-1 .7-1.3s1.1-.4 2-.4v-.1c0-.6-.3-.9-.9-.9-.5 0-.8.1-1.2.3l-.2-.7c.4-.3.9-.4 1.6-.4 1.2 0 1.8.6 1.8 1.9v1.7c-.1.5-.1.8-.1 1.1zm-1-1.6v-.7c-1.1 0-1.7.3-1.7.9 0 .2.1.4.2.5s.3.2.5.2.4-.1.6-.2.3-.3.4-.5c0 0 0-.1 0-.2z"/><path d="m127.6 32.6h-.9v-.7c-.3.6-.8.8-1.5.8-.6 0-1-.2-1.4-.6s-.5-1-.5-1.7.2-1.3.6-1.8c.4-.4.9-.6 1.4-.6.6 0 1 .2 1.3.6v-2.6h1v5.4zm-1-1.9v-.8c0-.1 0-.2 0-.3-.1-.2-.2-.4-.4-.6s-.4-.2-.7-.2c-.4 0-.7.2-.9.5s-.3.7-.3 1.2.1.8.3 1.1.5.5.9.5c.3 0 .6-.1.8-.4.2-.4.3-.7.3-1z"/><path d="m136.3 30.3c0 .7-.2 1.3-.6 1.7-.4.5-1 .7-1.7.7s-1.2-.2-1.6-.7c-.4-.4-.6-1-.6-1.7s.2-1.3.6-1.7c.4-.5 1-.7 1.7-.7s1.2.2 1.6.7c.4.4.6 1 .6 1.7zm-1.1 0c0-.4-.1-.8-.3-1.1-.2-.4-.5-.5-.9-.5s-.7.2-.9.5-.3.7-.3 1.1.1.8.3 1.1c.2.4.5.5.9.5s.7-.2.9-.6c.2-.2.3-.6.3-1z"/><path d="m141.8 32.6h-1v-2.6c0-.8-.3-1.2-.9-1.2-.3 0-.5.1-.7.3s-.3.5-.3.8v2.7h-1v-3.3c0-.4 0-.8 0-1.3h.9v.7c.1-.2.3-.4.5-.6.3-.2.6-.3.9-.3.4 0 .8.1 1.1.4.4.3.5.8.5 1.5z"/><path d="m148.6 28.8h-1.1v2.2c0 .6.2.8.6.8h.5v.8c-.2.1-.5.1-.8.1-.4 0-.7-.1-.9-.4-.2-.2-.3-.7-.3-1.2v-2.3h-.7v-.8h.7v-.8l1-.3v1.1h1.1v.8z"/><path d="m154 32.6h-1v-2.6c0-.8-.3-1.2-.9-1.2-.5 0-.8.2-1 .7v.4 2.7h-1v-6.7h1v2.8c.3-.5.8-.8 1.4-.8.4 0 .8.1 1 .4.3.3.5.9.5 1.5z"/><path d="m159.5 30.1v.5h-3c0 .5.2.8.4 1 .3.2.6.3 1 .3.5 0 .9-.1 1.2-.2l.2.7c-.4.2-.9.3-1.5.3-.7 0-1.3-.2-1.7-.6s-.6-1-.6-1.7.2-1.3.6-1.7c.4-.5.9-.7 1.6-.7s1.2.2 1.5.7c.2.3.3.8.3 1.4zm-.9-.3c0-.3-.1-.6-.2-.8-.2-.3-.4-.4-.8-.4-.3 0-.6.1-.8.4-.2.2-.3.5-.3.8z"/></g></svg>