<svg enable-background="new 185.5 -25.5 128 128" viewBox="185.5 -25.5 128 128" xmlns="http://www.w3.org/2000/svg" xmlns:xlink="http://www.w3.org/1999/xlink"><linearGradient id="a" gradientUnits="userSpaceOnUse" x1="201.7674" x2="207.3656" y1="25.0736" y2="48.0645"><stop offset="0" stop-color="#006884"/><stop offset="1" stop-color="#8ad1d0"/></linearGradient><linearGradient id="b" gradientUnits="userSpaceOnUse" x1="194.9407" x2="210.1967" y1="28.3438" y2="36.5913"><stop offset="0" stop-color="#24bbb6"/><stop offset="1" stop-color="#dbe692"/></linearGradient><linearGradient id="c" gradientUnits="userSpaceOnUse" x1="212.4944" x2="212.4944" y1="42.1201" y2="34.1717"><stop offset="0" stop-color="#fcc072"/><stop offset="1" stop-color="#f58a5b"/></linearGradient><linearGradient id="d" gradientUnits="userSpaceOnUse" x1="197.8947" x2="209.9464" y1="51.7691" y2="39.5039"><stop offset="0" stop-color="#712b8f"/><stop offset="1" stop-color="#ea1d27"/></linearGradient><path d="m309.5 58.5h-120c-2.2 0-4-1.8-4-4v-32c0-2.2 1.8-4 4-4h120c2.2 0 4 1.8 4 4v32c0 2.2-1.8 4-4 4z"/><path clip-rule="evenodd" d="m195.3 38.1v-10.5c0-.6.5-1.1 1-1.1s.7.1 1 .3l19.3 10.6c.4.2.6.5.6.8s-.2.6-.6.8l-19.3 10.6c-.2.1-.5.3-1 .3s-1-.5-1-1.1z" fill="url(#a)" fill-rule="evenodd"/><path clip-rule="evenodd" d="m207.8 38.2-11.7-11.7h.2c.5 0 .7.1 1 .3l14.2 7.8z" fill="url(#b)" fill-rule="evenodd"/><path clip-rule="evenodd" d="m211.4 41.7-3.6-3.6 3.7-3.7 5.1 2.8c.4.2.6.5.6.8s-.2.6-.6.8z" fill="url(#c)" fill-rule="evenodd"/><path clip-rule="evenodd" d="m196.2 49.7 11.6-11.6 3.6 3.6-14.1 7.7c-.3.2-.5.3-1.1.3.1 0 .1 0 0 0z" fill="url(#d)" fill-rule="evenodd"/><g fill="#fff"><path clip-rule="evenodd" d="m256.6 52.4c-.5-.4-.9-1.1-1.1-1.5l1.6-.7c.1.2.3.5.5.8.4.4 1 .8 1.6.8s1.3-.3 1.7-.8c.3-.5.5-1 .5-1.7v-.6c-1.2 1.5-3.7 1.3-5.1-.3-1.5-1.6-1.5-4.3 0-5.9 1.5-1.5 3.7-1.7 5-.3v-.7h1.7v7.5c0 1.9-.7 3-1.6 3.7-.6.5-1.5.7-2.3.7-.9-.1-1.8-.4-2.5-1zm41.9.4 1.7-4-3-6.9h1.7l2.1 4.9 2.1-4.9h1.7l-4.6 10.9zm-8.1-3.8c-.5-.5-.7-1.2-.7-1.9 0-.6.2-1.2.6-1.6.7-.7 1.7-1 2.8-1 .7 0 1.3.1 1.8.4 0-1.2-1-1.7-1.8-1.7-.7 0-1.4.4-1.7 1.1l-1.5-.6c.3-.7 1.1-2 3.1-2 1 0 2 .3 2.6 1s.8 1.5.8 2.6v4.2h-1.7v-.7c-.2.3-.6.5-.9.7-.4.2-.9.3-1.4.3-.6-.1-1.5-.3-2-.8zm-53.3-3.6c0-2 1.5-4.2 4.2-4.2 2.6 0 4.2 2.2 4.2 4.2s-1.5 4.2-4.2 4.2-4.2-2.2-4.2-4.2zm9 0c0-2 1.5-4.2 4.2-4.2 2.6 0 4.2 2.2 4.2 4.2s-1.5 4.2-4.2 4.2c-2.6 0-4.2-2.2-4.2-4.2zm-20.3 2.2c-2.5-2.5-2.4-6.6.1-9.2 1.3-1.3 2.9-1.9 4.6-1.9 1.6 0 3.2.6 4.4 1.8l-1.2 1.3c-1.8-1.8-4.7-1.7-6.4.1-1.8 1.9-1.8 4.8 0 6.7s4.8 2 6.6.1c.6-.6.8-1.4.9-2.2h-4.2v-1.8h5.9c.1.4.1.9.1 1.4 0 1.5-.6 3-1.6 4-1.1 1.1-2.7 1.7-4.3 1.7-1.8-.1-3.6-.7-4.9-2zm42.3.7c-1.5-1.6-1.5-4.3 0-6 1.5-1.6 4-1.6 5.4 0 .5.5.8 1.2 1.1 1.9l-5.5 2.3c.3.7 1 1.3 2 1.3.9 0 1.5-.3 2.1-1.2l1.5 1c-.2.2-.4.4-.5.6-1.7 1.7-4.6 1.7-6.1.1zm10.4 1.2v-11.1h3.6c2.1 0 3.8 1.5 3.8 3.3s-1.5 3.3-3.4 3.3h-2.2v4.4h-1.8zm8.4 0v-11.1h1.7v11.1zm-22.6-.2v-12.4h1.8v12.4zm30.5-3.1c-.4-.3-1-.4-1.6-.4-1.2 0-1.9.6-1.9 1.3s.7 1.1 1.4 1.1c1 0 2.1-.8 2.1-2zm-51.2-.8c0-1.2-.8-2.5-2.3-2.5s-2.3 1.3-2.3 2.5.8 2.5 2.3 2.5c1.4 0 2.3-1.3 2.3-2.5zm9 0c0-1.2-.8-2.5-2.3-2.5s-2.3 1.3-2.3 2.5.8 2.5 2.3 2.5 2.3-1.3 2.3-2.5zm8.9.7c0-.1 0-.2.1-.3 0-.1 0-.3 0-.4s0-.3 0-.4v-.1c0-.1-.1-.3-.1-.4-.3-1-1.2-1.7-2.1-1.7-1.2 0-2.2 1.2-2.2 2.5 0 1.4 1 2.5 2.3 2.5.8.1 1.6-.6 2-1.7zm7.3-.9 3.7-1.6c-.4-.7-1-.9-1.5-.9-1.5.1-2.4 1.7-2.2 2.5zm15.3-3.4c0-1-.8-1.7-1.9-1.7h-2v3.5h2.1c1 0 1.8-.8 1.8-1.8z" fill-rule="evenodd"/><path clip-rule="evenodd" d="m299.8 50.8h-.1v-.1h.1-.1v.1z" fill-rule="evenodd"/><path clip-rule="evenodd" d="m299.8 50.8c0-.1 0-.1 0 0z" fill-rule="evenodd"/><path clip-rule="evenodd" d="m299.8 50.8v-.1z" fill-rule="evenodd"/><path clip-rule="evenodd" d="m299.8 50.7v.1z" fill-rule="evenodd"/><path clip-rule="evenodd" d="m299.8 50.8v-.1z" fill-rule="evenodd"/><path clip-rule="evenodd" d="m299.8 50.8c0-.1 0-.1 0 0zm0 0c0-.1 0-.1 0 0z" fill-rule="evenodd"/><path clip-rule="evenodd" d="m299.9 50.8c0-.1 0-.1 0 0zm0 0c0-.1 0-.1 0 0z" fill-rule="evenodd"/><path clip-rule="evenodd" d="m299.9 50.7v.1z" fill-rule="evenodd"/><path clip-rule="evenodd" d="m299.9 50.8v-.1z" fill-rule="evenodd"/><path clip-rule="evenodd" d="m299.9 50.8c0-.1 0-.1 0 0zm0-.1c0 .1 0 .1 0 0z" fill-rule="evenodd"/><path clip-rule="evenodd" d="m299.9 50.8c0-.1 0-.1 0 0z" fill-rule="evenodd"/><path clip-rule="evenodd" d="m300 50.8c0-.1 0-.1 0 0-.1-.1-.1-.1 0 0-.1 0-.1 0 0 0zm0-.1c0 .1 0 .1 0 0 0 .1-.1.1 0 0-.1 0 0 0 0 0z" fill-rule="evenodd"/><path clip-rule="evenodd" d="m300 50.8v-.1.1-.1.1-.1z" fill-rule="evenodd"/><path clip-rule="evenodd" d="m300 50.8c0-.1 0-.1 0 0z" fill-rule="evenodd"/><path clip-rule="evenodd" d="m300.1 50.7h-.1.1v.1z" fill-rule="evenodd"/><path clip-rule="evenodd" d="m300.1 50.8v-.1z" fill-rule="evenodd"/><path clip-rule="evenodd" d="m300.1 50.8c0-.1 0-.1 0 0z" fill-rule="evenodd"/><path d="m224.4 28.6c0-1.8 1.3-2.9 2.9-2.9 1.1 0 1.8.5 2.3 1.2l-.8.5c-.3-.4-.8-.7-1.5-.7-1.1 0-1.9.8-1.9 2s.8 2 1.9 2c.6 0 1.1-.3 1.3-.5v-.9h-1.6v-.9h2.7v2.1c-.5.6-1.3 1-2.3 1-1.7 0-3-1.2-3-2.9z"/><path d="m230.9 31.4v-5.6h3.8v.9h-2.9v1.4h2.8v.9h-2.8v1.6h2.9v.9z"/><path d="m237.5 31.4v-4.7h-1.7v-.9h4.4v.9h-1.7v4.7z"/><path d="m243.6 31.4v-5.6h1v5.6z"/><path d="m247.3 31.4v-4.7h-1.7v-.9h4.4v.9h-1.7v4.7z"/><path d="m253.2 28.6c0-1.7 1.2-2.9 2.9-2.9s2.9 1.2 2.9 2.9-1.2 2.9-2.9 2.9-2.9-1.3-2.9-2.9zm4.7 0c0-1.2-.7-2-1.9-2-1.1 0-1.9.9-1.9 2 0 1.2.7 2 1.9 2s1.9-.9 1.9-2z"/><path d="m264 31.4-2.9-4v4h-1v-5.6h1l2.9 3.9v-3.9h1v5.6z"/></g></svg>